bozucu_refleks_KAPALI_x10_YAVAS4x
version=1
nRows=62
nColumns=15
inDegrees=yes
endheader
time	sacrum_pitch	sacrum_roll	sacrum_yaw	sacrum_x	sacrum_y	sacrum_z	sacroiliac_flx	hip_flx	hip_add	hip_int	knee_flx	ankle_flx	ankle_add	ankle_int
2.321600	22.370217	0.000000	0.000000	0.000000	0.672500	0.000000	3.700000	25.954571	-10.000000	0.000000	-104.058780	33.483248	-5.000000	0.000000
2.322400	22.370217	0.000000	0.000000	0.000000	0.672500	0.000000	3.700000	25.950256	-10.000000	0.000000	-104.063518	33.445145	-5.000000	0.000000
2.323200	22.370217	0.000000	0.000000	0.000000	0.672500	0.000000	3.700000	25.946162	-10.000000	0.000000	-104.068533	33.407043	-5.000000	0.000000
2.324000	22.370217	0.000000	0.000000	0.000000	0.672500	0.000000	3.700000	25.942278	-10.000000	0.000000	-104.073730	33.368940	-5.000000	0.000000
2.324800	22.370217	0.000000	0.000000	0.000000	0.672500	0.000000	3.700000	25.938595	-10.000000	0.000000	-104.079031	33.330838	-5.000000	0.000000
2.325600	22.370217	0.000000	0.000000	0.000000	0.672500	0.000000	3.700000	25.935104	-10.000000	0.000000	-104.084371	33.292735	-5.000000	0.000000
2.326400	22.370217	0.000000	0.000000	0.000000	0.672500	0.000000	3.700000	25.931795	-10.000000	0.000000	-104.089702	33.254633	-5.000000	0.000000
2.327200	22.370217	0.000000	0.000000	0.000000	0.672500	0.000000	3.700000	25.928663	-10.000000	0.000000	-104.094984	33.216530	-5.000000	0.000000
2.328000	22.370217	0.000000	0.000000	0.000000	0.672500	0.000000	3.700000	25.925702	-10.000000	0.000000	-104.100193	33.178427	-5.000000	0.000000
2.328800	22.370217	0.000000	0.000000	0.000000	0.672500	0.000000	3.700000	25.922906	-10.000000	0.000000	-104.105312	33.140325	-5.000000	0.000000
2.329600	22.370217	0.000000	0.000000	0.000000	0.672500	0.000000	3.700000	25.920274	-10.000000	0.000000	-104.110359	33.103933	-5.000000	0.000000
2.330400	22.370217	0.000000	0.000000	0.000000	0.672500	0.000000	3.700000	25.917817	-10.000000	0.000000	-104.115451	33.068931	-5.000000	0.000000
2.331200	22.370217	0.000000	0.000000	0.000000	0.672500	0.000000	3.700000	25.915545	-10.000000	0.000000	-104.120699	33.034209	-5.000000	0.000000
2.332000	22.370217	0.000000	0.000000	0.000000	0.672500	0.000000	3.700000	25.913467	-10.000000	0.000000	-104.126200	32.999630	-5.000000	0.000000
2.332800	22.370217	0.000000	0.000000	0.000000	0.672500	0.000000	3.700000	25.911594	-10.000000	0.000000	-104.132035	32.965051	-5.000000	0.000000
2.333600	22.370217	0.000000	0.000000	0.000000	0.672500	0.000000	3.700000	25.909932	-10.000000	0.000000	-104.138266	32.930471	-5.000000	0.000000
2.334400	22.370217	0.000000	0.000000	0.000000	0.672500	0.000000	3.700000	25.908488	-10.000000	0.000000	-104.144943	32.895892	-5.000000	0.000000
2.335200	22.370217	0.000000	0.000000	0.000000	0.672500	0.000000	3.700000	25.907267	-10.000000	0.000000	-104.152100	32.861313	-5.000000	0.000000
2.336000	22.370217	0.000000	0.000000	0.000000	0.672500	0.000000	3.700000	25.906274	-10.000000	0.000000	-104.159764	32.826734	-5.000000	0.000000
2.336800	22.370217	0.000000	0.000000	0.000000	0.672500	0.000000	3.700000	25.905510	-10.000000	0.000000	-104.167948	32.792444	-5.000000	0.000000
2.337600	22.370217	0.000000	0.000000	0.000000	0.672500	0.000000	3.700000	25.904970	-10.000000	0.000000	-104.176593	32.760660	-5.000000	0.000000
2.338400	22.370217	0.000000	0.000000	0.000000	0.672500	0.000000	3.700000	25.904643	-10.000000	0.000000	-104.185602	32.729065	-5.000000	0.000000
2.339200	22.370217	0.000000	0.000000	0.000000	0.672500	0.000000	3.700000	25.904516	-10.000000	0.000000	-104.194870	32.698164	-5.000000	0.000000
2.340000	22.370217	0.000000	0.000000	0.000000	0.672500	0.000000	3.700000	25.904575	-10.000000	0.000000	-104.204295	32.667262	-5.000000	0.000000
2.340800	22.370217	0.000000	0.000000	0.000000	0.672500	0.000000	3.700000	25.904807	-10.000000	0.000000	-104.213793	32.636361	-5.000000	0.000000
2.341600	22.370217	0.000000	0.000000	0.000000	0.672500	0.000000	3.700000	25.905202	-10.000000	0.000000	-104.223293	32.605460	-5.000000	0.000000
2.342400	22.370217	0.000000	0.000000	0.000000	0.672500	0.000000	3.700000	25.905750	-10.000000	0.000000	-104.232738	32.574559	-5.000000	0.000000
2.343200	22.370217	0.000000	0.000000	0.000000	0.672500	0.000000	3.700000	25.906443	-10.000000	0.000000	-104.242086	32.543658	-5.000000	0.000000
2.344000	22.370217	0.000000	0.000000	0.000000	0.672500	0.000000	3.700000	25.907274	-10.000000	0.000000	-104.251309	32.512756	-5.000000	0.000000
2.344800	22.370217	0.000000	0.000000	0.000000	0.672500	0.000000	3.700000	25.908242	-10.000000	0.000000	-104.260415	32.483457	-5.000000	0.000000
2.345600	22.370217	0.000000	0.000000	0.000000	0.672500	0.000000	3.700000	25.909351	-10.000000	0.000000	-104.269487	32.454999	-5.000000	0.000000
2.346400	22.370217	0.000000	0.000000	0.000000	0.672500	0.000000	3.700000	25.910613	-10.000000	0.000000	-104.278624	32.427594	-5.000000	0.000000
2.347200	22.370217	0.000000	0.000000	0.000000	0.672500	0.000000	3.700000	25.912039	-10.000000	0.000000	-104.287943	32.400511	-5.000000	0.000000
2.348000	22.370217	0.000000	0.000000	0.000000	0.672500	0.000000	3.700000	25.913643	-10.000000	0.000000	-104.297548	32.373429	-5.000000	0.000000
2.348800	22.370217	0.000000	0.000000	0.000000	0.672500	0.000000	3.700000	25.915437	-10.000000	0.000000	-104.307523	32.346346	-5.000000	0.000000
2.349600	22.370217	0.000000	0.000000	0.000000	0.672500	0.000000	3.700000	25.917433	-10.000000	0.000000	-104.317940	32.319263	-5.000000	0.000000
2.350400	22.370217	0.000000	0.000000	0.000000	0.672500	0.000000	3.700000	25.919642	-10.000000	0.000000	-104.328855	32.292180	-5.000000	0.000000
2.351200	22.370217	0.000000	0.000000	0.000000	0.672500	0.000000	3.700000	25.922074	-10.000000	0.000000	-104.340314	32.265097	-5.000000	0.000000
2.352000	22.370217	0.000000	0.000000	0.000000	0.672500	0.000000	3.700000	25.924736	-10.000000	0.000000	-104.352345	32.238439	-5.000000	0.000000
2.352800	22.370217	0.000000	0.000000	0.000000	0.672500	0.000000	3.700000	25.927632	-10.000000	0.000000	-104.364916	32.213408	-5.000000	0.000000
2.353600	22.370217	0.000000	0.000000	0.000000	0.672500	0.000000	3.700000	25.930755	-10.000000	0.000000	-104.377961	32.188978	-5.000000	0.000000
2.354400	22.370217	0.000000	0.000000	0.000000	0.672500	0.000000	3.700000	25.934097	-10.000000	0.000000	-104.391364	32.165840	-5.000000	0.000000
2.355200	22.370217	0.000000	0.000000	0.000000	0.672500	0.000000	3.700000	25.937644	-10.000000	0.000000	-104.405007	32.142703	-5.000000	0.000000
2.356000	22.370217	0.000000	0.000000	0.000000	0.672500	0.000000	3.700000	25.941386	-10.000000	0.000000	-104.418787	32.119565	-5.000000	0.000000
2.356800	22.370217	0.000000	0.000000	0.000000	0.672500	0.000000	3.700000	25.945310	-10.000000	0.000000	-104.432612	32.096428	-5.000000	0.000000
2.357600	22.370217	0.000000	0.000000	0.000000	0.672500	0.000000	3.700000	25.949406	-10.000000	0.000000	-104.446409	32.073290	-5.000000	0.000000
2.358400	22.370217	0.000000	0.000000	0.000000	0.672500	0.000000	3.700000	25.953665	-10.000000	0.000000	-104.460119	32.050152	-5.000000	0.000000
2.359200	22.370217	0.000000	0.000000	0.000000	0.672500	0.000000	3.700000	25.958080	-10.000000	0.000000	-104.473696	32.027015	-5.000000	0.000000
2.360000	22.370217	0.000000	0.000000	0.000000	0.672500	0.000000	3.700000	25.962645	-10.000000	0.000000	-104.487135	32.005109	-5.000000	0.000000
2.360800	22.370217	0.000000	0.000000	0.000000	0.672500	0.000000	3.700000	25.967364	-10.000000	0.000000	-104.500481	31.983595	-5.000000	0.000000
2.361600	22.370217	0.000000	0.000000	0.000000	0.672500	0.000000	3.700000	25.972245	-10.000000	0.000000	-104.513824	31.964198	-5.000000	0.000000
2.362400	22.370217	0.000000	0.000000	0.000000	0.672500	0.000000	3.700000	25.977301	-10.000000	0.000000	-104.527306	31.945119	-5.000000	0.000000
2.363200	22.370217	0.000000	0.000000	0.000000	0.672500	0.000000	3.700000	25.982550	-10.000000	0.000000	-104.541052	31.926041	-5.000000	0.000000
2.364000	22.370217	0.000000	0.000000	0.000000	0.672500	0.000000	3.700000	25.988007	-10.000000	0.000000	-104.555170	31.906962	-5.000000	0.000000
2.364800	22.370217	0.000000	0.000000	0.000000	0.672500	0.000000	3.700000	25.993686	-10.000000	0.000000	-104.569757	31.887883	-5.000000	0.000000
2.365600	22.370217	0.000000	0.000000	0.000000	0.672500	0.000000	3.700000	25.999605	-10.000000	0.000000	-104.584892	31.868805	-5.000000	0.000000
2.366400	22.370217	0.000000	0.000000	0.000000	0.672500	0.000000	3.700000	26.005777	-10.000000	0.000000	-104.600644	31.849726	-5.000000	0.000000
2.367200	22.370217	0.000000	0.000000	0.000000	0.672500	0.000000	3.700000	26.012216	-10.000000	0.000000	-104.617064	31.831009	-5.000000	0.000000
2.368000	22.370217	0.000000	0.000000	0.000000	0.672500	0.000000	3.700000	26.018931	-10.000000	0.000000	-104.634158	31.813095	-5.000000	0.000000
2.368800	22.370217	0.000000	0.000000	0.000000	0.672500	0.000000	3.700000	26.025927	-10.000000	0.000000	-104.651898	31.796443	-5.000000	0.000000
2.369600	22.370217	0.000000	0.000000	0.000000	0.672500	0.000000	3.700000	26.033195	-10.000000	0.000000	-104.670159	31.781525	-5.000000	0.000000
2.370400	22.370217	0.000000	0.000000	0.000000	0.672500	0.000000	3.700000	26.040724	-10.000000	0.000000	-104.688808	31.766607	-5.000000	0.000000
